<svg xmlns="http://www.w3.org/2000/svg" id="Layer_1" data-name="Layer 1" viewBox="0 0 500 129.3">
  <defs>
    <style>
      .cls-1{fill:#7f3f23}
    </style>
  </defs>
  <path d="M39.65 34.38c0 1.8-.4 3.71-1.19 5.74-.8 2.03-2.07 3.9-3.83 5.61-1.76 1.72-4.02 3.12-6.78 4.2-2.76 1.09-5.77 1.63-9.03 1.63s-6.19-.52-8.78-1.57C5.19 48.07 2.03 44.7.57 39.89c-.38-1.3-.56-2.51-.56-3.64 0-3.64 1.11-7.05 3.32-10.23l.56.44c-1.38 2.47-2.07 4.85-2.07 7.15 0 2.85.71 5.36 2.13 7.53s3.32 3.87 5.71 5.08 4.82 1.82 7.31 1.82 4.59-.4 6.31-1.19c1.72-.8 2.97-1.86 3.77-3.2.79-1.34 1.19-2.74 1.19-4.2s-.52-2.96-1.57-4.49c-1.04-1.53-2.59-2.86-4.64-3.98L11.8 24.96c-5.19-3.05-7.78-6.98-7.78-11.8 0-4.31 1.5-7.63 4.52-9.97C11.04 1.24 14.45.25 18.76.25c2.76 0 6.27.21 10.54.63h4.89l-1.32 10.23h-.63c0-2.3-.9-4.16-2.7-5.58-1.8-1.42-4.1-2.13-6.9-2.13s-4.96.48-6.46 1.44-2.32 2.24-2.45 3.83c-.13 1.09.17 2.01.88 2.76.63.67 1.25 1.18 1.88 1.54l1.7.97c.5.29.86.48 1.06.56l11.73 6.71c2.63 1.47 4.68 3.29 6.15 5.46 1.67 2.47 2.51 5.04 2.51 7.72ZM92.91 1.76h-1c-.88 0-1.64.28-2.29.84-.65.57-.99 1.27-1.04 2.1v24.22c0 5.31-1.64 9.47-4.92 12.49-3.28 3.01-7.89 4.52-13.83 4.52-7.53 0-13.15-1.46-16.88-4.39-3.72-2.93-5.58-7.11-5.58-12.55V4.89c0-.92-.32-1.67-.97-2.26-.65-.59-1.43-.88-2.35-.88h-1v-.63h21.52v.63h-1c-.92 0-1.7.28-2.32.84-.63.57-.96 1.29-1 2.16v23.97c0 4.39 1 7.82 3.01 10.29 2.01 2.47 4.81 3.7 8.41 3.7s6.41-1.16 8.44-3.48c2.03-2.32 3.04-5.55 3.04-9.69V4.77c-.04-.88-.38-1.6-1-2.16-.63-.56-1.4-.84-2.32-.84h-1v-.63h14.11v.63Zm43.79 12.23c0 1.92-.39 3.8-1.16 5.61-.78 1.82-1.89 3.32-3.36 4.49-2.63 2.13-5.44 3.2-8.41 3.2s-5.86-.96-8.53-2.89v-.63c1.51-.25 2.64-.65 3.42-1.19.77-.54 1.39-1.07 1.85-1.57a8.763 8.763 0 0 0 2.1-3.95c.35-1.51.53-2.57.53-3.2 0-3.3-.71-5.73-2.13-7.28s-3.32-2.32-5.71-2.32h-2.2v36.2c.04 1.09.45 2.02 1.22 2.79s1.7 1.16 2.79 1.16h.82v.63H95.41v-.63h.82c1.5 0 2.65-.65 3.45-1.95.38-.63.57-1.29.57-2.01V5.4c0-1-.41-1.86-1.23-2.57-.81-.71-1.75-1.06-2.79-1.06h-.75l-.06-.63h23.9c5.73 0 10.12 1.19 13.17 3.58 2.8 2.13 4.2 5.23 4.2 9.28Zm3.58 30.43c1.09 0 2.02-.39 2.79-1.16s1.18-1.71 1.23-2.79V5.71c-.04-1.34-.61-2.4-1.7-3.2-.67-.5-1.44-.75-2.32-.75h-.82v-.63h27.79c1.8 0 3.4-.15 4.8-.44 1.4-.29 2.29-.52 2.67-.69v12.92h-.63v-.5c0-3.34-1.21-5.68-3.64-7.03-1.17-.67-2.57-1.02-4.2-1.07h-9.1v17.5h6.84c2.01-.04 3.64-.7 4.89-1.98 1.26-1.28 1.88-2.92 1.88-4.92v-.25h.63v17.44h-.63v-.31c0-1.96-.63-3.58-1.88-4.86-1.25-1.28-2.86-1.93-4.83-1.98h-6.9v16.88h7.72c3.05 0 5.75-1.01 8.09-3.01 2.34-2.01 3.99-4.79 4.95-8.34h.63l-2.38 14.56h-36.7v-.63h.82Zm81.43-36.39c.67 1.47 1 2.98 1 4.55s-.17 2.95-.5 4.14-.86 2.37-1.57 3.54c-1.55 2.51-4.2 4.06-7.97 4.64 1.63.46 3.09 1.28 4.39 2.45 1.38 1.17 2.68 2.8 3.89 4.89 3.14 5.36 5.54 8.81 7.21 10.35 1.26 1.17 2.84 1.78 4.77 1.82v.63h-7.84c-5.44 0-9.33-.6-11.67-1.82-3.35-1.71-5.73-4.66-7.15-8.85-.38-1.21-.7-2.49-.97-3.83s-.5-2.31-.69-2.92c-.19-.6-.41-1.17-.66-1.69-.25-.52-.52-.93-.82-1.23-.5-.5-1.09-.88-1.76-1.13v-.63h1c2.43 0 4.25-1.11 5.46-3.32.63-1.17 1.01-2.44 1.16-3.8s.22-2.21.22-2.54v-.63c-.29-5.52-2.68-8.28-7.15-8.28h-2.76v36.07c0 1.09.4 2.02 1.19 2.79s1.74 1.16 2.82 1.16h.75v.63h-22.52v-.63h.82c1.09 0 2.02-.38 2.79-1.13s1.18-1.67 1.23-2.76V5.71c-.04-1.55-.71-2.7-2.01-3.45-.63-.33-1.3-.5-2.01-.5h-.82v-.63h24.53c8.2 0 13.4 2.3 15.62 6.9Zm63.61 26.35c0 1.8-.4 3.71-1.19 5.74-.8 2.03-2.07 3.9-3.83 5.61-1.76 1.72-4.02 3.12-6.78 4.2-2.76 1.09-5.77 1.63-9.03 1.63s-6.19-.52-8.78-1.57c-4.85-1.92-8.01-5.29-9.47-10.1-.38-1.3-.56-2.51-.56-3.64 0-3.64 1.11-7.05 3.32-10.23l.56.44c-1.38 2.47-2.07 4.85-2.07 7.15 0 2.85.71 5.36 2.13 7.53s3.32 3.87 5.71 5.08 4.82 1.82 7.31 1.82 4.59-.4 6.31-1.19c1.72-.8 2.97-1.86 3.77-3.2.79-1.34 1.19-2.74 1.19-4.2s-.52-2.96-1.57-4.49c-1.04-1.53-2.59-2.86-4.64-3.98l-10.23-6.02c-5.19-3.05-7.78-6.98-7.78-11.8 0-4.31 1.5-7.63 4.52-9.97 2.51-1.97 5.92-2.95 10.23-2.95 2.76 0 6.27.21 10.54.63h4.89l-1.32 10.23h-.63c0-2.3-.9-4.16-2.7-5.58-1.8-1.42-4.1-2.13-6.9-2.13s-4.96.48-6.46 1.44-2.32 2.24-2.45 3.83c-.13 1.09.17 2.01.88 2.76.63.67 1.25 1.18 1.88 1.54l1.7.97c.5.29.86.48 1.06.56l11.73 6.71c2.63 1.47 4.68 3.29 6.15 5.46 1.67 2.47 2.51 5.04 2.51 7.72Zm4.2 10.04c1.09 0 2.02-.39 2.79-1.16s1.18-1.71 1.23-2.79V5.65c-.04-1.09-.45-2.01-1.23-2.76s-1.7-1.13-2.79-1.13h-.82v-.63h22.52v.63h-.81c-1.09 0-2.02.38-2.79 1.13s-1.18 1.67-1.22 2.76v34.82c0 1.09.4 2.02 1.19 2.79.79.77 1.73 1.16 2.82 1.16h.81v.63H288.7v-.63h.82Zm84.95 0h1v.63H353.2v-.56h1c.67 0 1.26-.28 1.79-.85s.74-1.18.66-1.85l-2.38-18.32-10.66 15.81c-.71 1-1.34 2.22-1.88 3.64-.54 1.42-.79 2.64-.75 3.64h-.56l-16.31-22.52-2.2 17.75c-.08.67.14 1.29.66 1.85s1.12.85 1.79.85h1v.56h-13.8v-.63h1c1.17 0 2.19-.35 3.04-1.07.86-.71 1.37-1.67 1.54-2.88L322.65.25h.56l21.08 28.79L363.61.25h.56l5.71 40.21c.21 1.21.73 2.17 1.57 2.88.84.71 1.84 1.07 3.01 1.07Zm42.78-30.43c0 1.92-.39 3.8-1.16 5.61-.78 1.82-1.89 3.32-3.36 4.49-2.63 2.13-5.44 3.2-8.41 3.2s-5.86-.96-8.53-2.89v-.63c1.51-.25 2.64-.65 3.42-1.19.77-.54 1.39-1.07 1.85-1.57a8.763 8.763 0 0 0 2.1-3.95c.35-1.51.53-2.57.53-3.2 0-3.3-.71-5.73-2.13-7.28s-3.32-2.32-5.71-2.32h-2.2v36.2c.04 1.09.45 2.02 1.22 2.79s1.7 1.16 2.79 1.16h.82v.63h-22.52v-.63h.82c1.5 0 2.65-.65 3.45-1.95.38-.63.57-1.29.57-2.01V5.4c0-1-.41-1.86-1.23-2.57-.81-.71-1.75-1.06-2.79-1.06h-.75l-.06-.63h23.9c5.73 0 10.12 1.19 13.17 3.58 2.8 2.13 4.2 5.23 4.2 9.28Zm3.58 30.43c1.09 0 2.02-.39 2.79-1.16s1.18-1.71 1.23-2.79V5.71c-.04-1.55-.71-2.7-2.01-3.45-.63-.33-1.3-.5-2.01-.5h-.82v-.63h22.52v.63h-.81c-1.09 0-2.03.39-2.82 1.16-.8.78-1.19 1.71-1.19 2.79v36.14h7.72c3.05 0 5.75-1.01 8.09-3.01 2.34-2.01 3.99-4.79 4.95-8.34h.63l-2.38 14.56h-36.7v-.63h.82Zm40.9 0c1.09 0 2.02-.39 2.79-1.16s1.18-1.71 1.23-2.79V5.71c-.04-1.34-.61-2.4-1.7-3.2-.67-.5-1.44-.75-2.32-.75h-.82v-.63h27.79c1.8 0 3.4-.15 4.8-.44 1.4-.29 2.29-.52 2.67-.69v12.92h-.63v-.5c0-3.34-1.21-5.68-3.64-7.03-1.17-.67-2.57-1.02-4.2-1.07h-9.1v17.5h6.84c2.01-.04 3.64-.7 4.89-1.98 1.26-1.28 1.88-2.92 1.88-4.92v-.25h.63v17.44h-.63v-.31c0-1.96-.63-3.58-1.88-4.86-1.25-1.28-2.86-1.93-4.83-1.98h-6.9v16.88h7.72c3.05 0 5.75-1.01 8.09-3.01 2.34-2.01 3.99-4.79 4.95-8.34h.63l-2.38 14.56h-36.7v-.63h.82ZM55.25 105.35c0 2.51-.55 5.17-1.66 8-1.11 2.83-2.89 5.44-5.33 7.83-2.45 2.39-5.59 4.34-9.44 5.86s-8.04 2.27-12.59 2.27-8.63-.73-12.24-2.19c-6.76-2.68-11.16-7.37-13.2-14.08-.52-1.8-.79-3.5-.79-5.07 0-5.07 1.54-9.82 4.63-14.25l.79.61c-1.92 3.44-2.89 6.76-2.89 9.97 0 3.96.99 7.46 2.97 10.49 1.98 3.03 4.63 5.39 7.96 7.08 3.32 1.69 6.72 2.54 10.19 2.54s6.4-.55 8.79-1.66c2.39-1.11 4.14-2.59 5.24-4.46 1.11-1.86 1.66-3.82 1.66-5.86s-.73-4.12-2.19-6.25-3.61-3.98-6.47-5.55l-14.25-8.39C9.2 87.99 5.59 82.51 5.59 75.8c0-6 2.1-10.64 6.29-13.9 3.5-2.74 8.25-4.11 14.25-4.11 3.85 0 8.74.29 14.69.88h6.82L45.8 72.92h-.88c0-3.21-1.25-5.8-3.76-7.78-2.51-1.98-5.71-2.97-9.62-2.97s-6.91.67-9.01 2.01c-2.1 1.34-3.23 3.12-3.41 5.33-.18 1.52.23 2.8 1.22 3.85.88.93 1.75 1.65 2.62 2.14.88.5 1.66.95 2.36 1.35.7.41 1.19.67 1.48.79L43.15 87c3.67 2.04 6.53 4.57 8.57 7.61 2.33 3.44 3.5 7.02 3.5 10.75Zm5.86 13.99c1.52 0 2.81-.54 3.89-1.62s1.65-2.37 1.7-3.89V65.31c-.06-1.51-.63-2.8-1.7-3.85-1.08-1.05-2.38-1.57-3.89-1.57h-1.14v-.88h31.39v.88h-1.14c-1.52 0-2.81.52-3.89 1.57s-1.65 2.33-1.7 3.85v48.52c0 1.52.55 2.81 1.66 3.89 1.11 1.08 2.42 1.62 3.93 1.62h1.14v.88H59.97v-.88h1.14Zm70.38.88h-9.44c-10.72 0-18.21-2.91-22.47-8.74-1.75-2.33-4.21-6.08-7.39-11.23-3.18-5.16-4.76-7.77-4.76-7.83l20.9-28.5c.41-.58.61-1.11.61-1.57s-.09-.88-.26-1.22c-.41-.88-1.22-1.31-2.45-1.31h-.88v-.79h21.07v.79h-.35c-3.91 0-7.11 1.43-9.62 4.28l-14.78 17.84 20.46 30.77c2.86 4.31 5.97 6.53 9.36 6.64v.88Zm1.4-.88c1.52 0 2.81-.54 3.89-1.62s1.65-2.37 1.7-3.89V65.31c-.06-1.51-.63-2.8-1.7-3.85-1.08-1.05-2.38-1.57-3.89-1.57h-1.14v-.88h31.39v.88H162c-1.52 0-2.81.52-3.89 1.57s-1.65 2.33-1.7 3.85v48.52c0 1.52.55 2.81 1.66 3.89 1.11 1.08 2.42 1.62 3.93 1.62h1.14v.88h-31.39v-.88h1.14Zm106.49-59.45c-1.46 0-2.71.51-3.76 1.53-1.05 1.02-1.6 2.26-1.66 3.72v45.11c0 4.31.29 7.63.87 9.97l.26 1.22h-.79L192.42 84.2v29.81c0 2.1.9 3.64 2.71 4.63.82.47 1.69.7 2.62.7h1.66v.88h-32v-.88h1.66c1.46 0 2.71-.51 3.76-1.53 1.05-1.02 1.57-2.29 1.57-3.8V68.63c0-4.08-.29-7.31-.87-9.7l-.26-1.22h.88l41.88 37.24V65.23c-.06-1.52-.61-2.78-1.66-3.8-1.05-1.02-2.3-1.53-3.76-1.53h-1.66v-.88h32v.88h-1.57Zm5.07 29.63c0-6.59 1.52-12.27 4.55-17.05 3.03-4.78 7.42-8.42 13.16-10.93 5.74-2.5 12.78-3.76 21.11-3.76s15.65 1.34 21.94 4.02l-.88 16.7h-.79c-1.69-5.89-4.14-10.08-7.34-12.59-3.21-2.5-7.2-3.76-11.98-3.76-6.47 0-11.51 2.39-15.12 7.17-3.61 4.78-5.42 11.44-5.42 19.98s1.67 15.25 5.03 20.15c3.35 4.9 8 7.43 13.95 7.61 6.88 0 11.86-1.63 14.95-4.9 2.91-3.03 5.19-8.86 6.82-17.49h.7l2.1 15.91c-4.31 7.23-12.46 10.83-24.44 10.8-11.98-.03-21.36-2.83-28.15-8.39-6.79-5.57-10.19-13.39-10.19-23.47Zm132.1 29.82h.7v.88h-33.14v-.88h.79c1.28 0 2.24-.39 2.88-1.18.64-.79.96-1.52.96-2.19s-.15-1.38-.44-2.14l-3.41-8.13h-18.71l-3.5 8.13c-.29.76-.44 1.37-.44 1.84s.1.98.31 1.53c.2.55.64 1.05 1.31 1.49.67.44 1.39.65 2.14.65h.79v.88h-19.5v-.88h.79c1.34 0 2.67-.39 3.98-1.18 1.31-.79 2.4-1.97 3.28-3.54l20.37-44.68c3.09-6.53 4.75-10.87 4.98-13.03h.79l27.72 57.62c1.86 3.21 4.31 4.81 7.34 4.81Zm-48.44-18.01h14.95l-7.34-17.48-7.61 17.48Z" class="cls-1"/>
  <path d="M432.68 68.63c.93 2.04 1.4 4.15 1.4 6.34s-.23 4.11-.7 5.77c-.47 1.66-1.2 3.31-2.18 4.94-2.16 3.5-5.86 5.65-11.1 6.47 2.27.64 4.31 1.78 6.12 3.41 1.92 1.63 3.73 3.91 5.42 6.82 4.37 7.46 7.72 12.27 10.05 14.42 1.75 1.63 3.96 2.48 6.65 2.54v.88h-10.93c-7.58 0-13-.84-16.26-2.54-4.66-2.39-7.99-6.5-9.97-12.33-.53-1.69-.98-3.47-1.36-5.33-.38-1.86-.7-3.22-.96-4.07-.26-.84-.57-1.63-.92-2.36-.35-.73-.73-1.3-1.14-1.71-.7-.7-1.52-1.22-2.45-1.57v-.88h1.4c3.38 0 5.91-1.54 7.61-4.63.88-1.63 1.41-3.39 1.62-5.29s.31-3.07.31-3.54v-.88c-.41-7.69-3.73-11.54-9.97-11.54h-3.85v50.27c0 1.52.55 2.81 1.66 3.89 1.11 1.08 2.42 1.62 3.93 1.62h1.05v.88h-31.39v-.88h1.14c1.52 0 2.81-.52 3.89-1.57s1.65-2.33 1.71-3.85V65.39c-.06-2.16-.99-3.76-2.8-4.81-.88-.47-1.81-.7-2.8-.7h-1.14V59h34.18c11.42 0 18.68 3.21 21.77 9.62Z" class="cls-1"/>
  <path d="M446.67 119.34c1.52 0 2.81-.54 3.89-1.62s1.65-2.37 1.7-3.89V65.39c-.06-1.86-.84-3.35-2.36-4.46-.93-.7-2.01-1.05-3.23-1.05h-1.14V59h38.73c2.5 0 4.73-.2 6.69-.61 1.95-.41 3.19-.73 3.71-.96v18.01h-.87v-.7c0-4.66-1.69-7.93-5.07-9.79-1.63-.93-3.59-1.43-5.86-1.49h-12.68v24.39h9.53c2.8-.06 5.07-.97 6.82-2.75s2.62-4.07 2.62-6.86v-.35h.88v24.3h-.88v-.44c0-2.74-.88-5-2.62-6.78s-3.99-2.7-6.73-2.75h-9.62v23.52h10.75c4.25 0 8.01-1.4 11.28-4.2 3.26-2.8 5.57-6.67 6.91-11.63h.87l-3.32 20.28h-51.14v-.88h1.14Z" class="cls-1"/>
</svg>
